# xmcd
#
# Track frame offsets:
#	150
#	2780
#	16910
#	48443
#	66513
#	86487
#	99511
#	122541
#	125244
#	137388
#	157923
#	176429
#	196662
#
# Disc length: 2684 seconds
# Revision: 1
# Processed by: cddbd v1.5.2PL0 Copyright (c) Steve Scherf et al.
# Submitted via: dBpowerAMP V12.0
#
DISCID=a00a7a0d
DTITLE=Kern Pratt - Broken Chains
DYEAR=2015
DGENRE=Blues
TTITLE0=Delta Mourn'
TTITLE1=Greenville Mississippi Blues
TTITLE2=Lights Are On, But Nobody's Home
TTITLE3=Somewhere South Of Memphis
TTITLE4=Black Hannah
TTITLE5=Cotton Pickin'
TTITLE6=Don't Leave Me Baby
TTITLE7=Steamboat
TTITLE8=It Hurts Me Too
TTITLE9=Handcuffed To The Blues
TTITLE10=Smokin' Gun
TTITLE11=Soulshake
TTITLE12=Broken Chains
EXTD=
EXTT0=
EXTT1=
EXTT2=
EXTT3=
EXTT4=
EXTT5=
EXTT6=
EXTT7=
EXTT8=
EXTT9=
EXTT10=
EXTT11=
EXTT12=
PLAYORDER=
